<svg xmlns="http://www.w3.org/2000/svg" viewBox="0 0 1200 900" role="img" aria-labelledby="title description">
  <title id="title">Aster included accessory kit</title>
  <desc id="description">A round carrying case, coiled braided cable, and six replacement ear tips arranged on a warm surface.</desc>
  <defs>
    <linearGradient id="background" x1="0" y1="0" x2="1" y2="1">
      <stop offset="0" stop-color="#f3eee4" />
      <stop offset="1" stop-color="#d7ccba" />
    </linearGradient>
    <linearGradient id="case" x1="0" y1="0" x2="1" y2="1">
      <stop offset="0" stop-color="#3f4444" />
      <stop offset="1" stop-color="#161919" />
    </linearGradient>
    <filter id="shadow" x="-30%" y="-30%" width="160%" height="160%">
      <feDropShadow dx="0" dy="20" stdDeviation="22" flood-color="#463d31" flood-opacity="0.22" />
    </filter>
  </defs>
  <rect width="1200" height="900" fill="url(#background)" />
  <g filter="url(#shadow)">
    <circle cx="385" cy="430" r="226" fill="url(#case)" />
    <circle cx="385" cy="430" r="202" fill="none" stroke="#707575" stroke-width="7" />
    <path d="M194 395 C259 372 327 362 385 363 C453 364 518 377 574 401" fill="none" stroke="#939797" stroke-width="5" />
    <rect x="333" y="408" width="104" height="38" rx="19" fill="#111313" stroke="#727777" stroke-width="3" />
    <path d="M359 427 H411" stroke="#c7cac6" stroke-width="5" stroke-linecap="round" />
  </g>
  <g transform="translate(726 376)" fill="none" stroke-linecap="round" filter="url(#shadow)">
    <circle r="168" stroke="#282b2c" stroke-width="16" />
    <circle r="132" stroke="#626667" stroke-width="5" />
    <circle r="96" stroke="#282b2c" stroke-width="14" />
    <path d="M-168 3 C-226 58 -213 147 -143 189" stroke="#282b2c" stroke-width="16" />
    <path d="M167 5 C224 59 210 149 140 189" stroke="#282b2c" stroke-width="16" />
    <rect x="-171" y="182" width="57" height="30" rx="8" fill="#3d4243" stroke="none" />
    <rect x="112" y="182" width="57" height="30" rx="8" fill="#3d4243" stroke="none" />
  </g>
  <g transform="translate(650 690)" filter="url(#shadow)">
    <g fill="#303435">
      <path d="M0 0 C0 -52 76 -52 76 0 L63 57 H13Z" />
      <path d="M118 0 C118 -52 194 -52 194 0 L181 57 H131Z" />
      <path d="M236 0 C236 -52 312 -52 312 0 L299 57 H249Z" />
    </g>
    <g transform="translate(370)" fill="#a46845">
      <path d="M0 0 C0 -52 76 -52 76 0 L63 57 H13Z" />
      <path d="M118 0 C118 -52 194 -52 194 0 L181 57 H131Z" />
      <path d="M236 0 C236 -52 312 -52 312 0 L299 57 H249Z" />
    </g>
  </g>
</svg>
