<svg xmlns="http://www.w3.org/2000/svg" viewBox="0 0 1200 900" role="img" aria-labelledby="title description">
  <title id="title">Graphite Aster in-ear monitors</title>
  <desc id="description">A pair of graphite earphones with silver faceplates and a braided black cable.</desc>
  <defs>
    <linearGradient id="background" x1="0" y1="0" x2="1" y2="1">
      <stop offset="0" stop-color="#f8f7f3" />
      <stop offset="1" stop-color="#ddd9d0" />
    </linearGradient>
    <linearGradient id="shell" x1="0" y1="0" x2="1" y2="1">
      <stop offset="0" stop-color="#4b4f52" />
      <stop offset="0.55" stop-color="#1d2022" />
      <stop offset="1" stop-color="#090a0b" />
    </linearGradient>
    <linearGradient id="plate" x1="0" y1="0" x2="1" y2="1">
      <stop offset="0" stop-color="#f1f2f0" />
      <stop offset="0.5" stop-color="#a8adb0" />
      <stop offset="1" stop-color="#5f6467" />
    </linearGradient>
    <filter id="shadow" x="-30%" y="-30%" width="160%" height="160%">
      <feDropShadow dx="0" dy="24" stdDeviation="24" flood-color="#222" flood-opacity="0.22" />
    </filter>
  </defs>
  <rect width="1200" height="900" fill="url(#background)" />
  <ellipse cx="600" cy="735" rx="370" ry="62" fill="#777268" opacity="0.16" />
  <g fill="none" stroke="#202326" stroke-linecap="round">
    <path d="M390 419 C240 510 255 688 440 760 C560 807 621 728 600 622" stroke-width="16" />
    <path d="M808 423 C955 505 944 682 768 758 C649 809 577 731 599 622" stroke-width="16" />
    <path d="M600 622 C600 712 580 778 536 833" stroke-width="20" />
    <path d="M600 622 C600 712 620 778 664 833" stroke="#6f7477" stroke-width="4" />
  </g>
  <g filter="url(#shadow)">
    <g transform="translate(358 318) rotate(-18 135 122)">
      <path d="M45 86 C62 28 125 4 185 22 C246 40 272 106 246 163 C221 219 150 251 91 220 C30 188 23 147 45 86Z" fill="url(#shell)" />
      <path d="M74 81 C93 42 139 29 183 42 C225 55 244 98 226 137 C207 178 158 202 116 183 C72 164 55 123 74 81Z" fill="url(#plate)" />
      <path d="M113 76 L184 60 L209 121 L145 164 L91 129Z" fill="#303437" opacity="0.76" />
      <circle cx="151" cy="116" r="16" fill="#d2d4d2" />
      <path d="M237 114 L286 110 L291 148 L244 157Z" fill="#242729" />
      <path d="M286 108 L329 101 L334 158 L291 149Z" fill="#17191a" />
      <path d="M49 177 C25 197 19 225 28 251" fill="none" stroke="#202326" stroke-width="17" stroke-linecap="round" />
    </g>
    <g transform="translate(693 317) rotate(18 135 122)">
      <path d="M45 86 C62 28 125 4 185 22 C246 40 272 106 246 163 C221 219 150 251 91 220 C30 188 23 147 45 86Z" fill="url(#shell)" />
      <path d="M74 81 C93 42 139 29 183 42 C225 55 244 98 226 137 C207 178 158 202 116 183 C72 164 55 123 74 81Z" fill="url(#plate)" />
      <path d="M113 76 L184 60 L209 121 L145 164 L91 129Z" fill="#303437" opacity="0.76" />
      <circle cx="151" cy="116" r="16" fill="#d2d4d2" />
      <path d="M237 114 L286 110 L291 148 L244 157Z" fill="#242729" />
      <path d="M286 108 L329 101 L334 158 L291 149Z" fill="#17191a" />
      <path d="M49 177 C25 197 19 225 28 251" fill="none" stroke="#202326" stroke-width="17" stroke-linecap="round" />
    </g>
  </g>
</svg>
